<svg viewBox="0 0 580 320" height="320" width="580" preserveAspectRatio="xMidYMid meet" class="" version="1.1"><title>ic_tempmap</title><defs></defs><g id="ic_tempmap" stroke="none" stroke-width="1" fill="none" fill-rule="evenodd"><rect id="Rectangle-6" fill="#EAEAEA" x="0" y="112" width="358" height="208"></rect><path d="M12.5,541 C-148.598871,541 -281,449.869854 -281,334 C-281,218.130146 -148.598871,127 12.5,127 C173.598871,127 306,218.130146 306,334 C306,449.869854 173.598871,541 12.5,541 Z M12.5,509 C157.919165,509 274,429.102921 274,334 C274,238.897079 157.919165,159 12.5,159 C-132.919165,159 -249,238.897079 -249,334 C-249,429.102921 -132.919165,509 12.5,509 Z" id="Oval-3" fill="#FFF1B6" fill-rule="nonzero"></path><polygon id="Rectangle-6" fill="#CBE6A3" points="6.37225587e-14 0 358 0 358 80 6.37225587e-14 80"></polygon><polygon id="Rectangle-6" fill="#8CCEFF" points="390 -2.82320336e-13 580 -2.82320336e-13 580 80 390 80"></polygon><rect id="Rectangle-6" fill="#F0E0C9" x="391" y="112" width="190" height="59"></rect><rect id="Rectangle-6" fill="#F0E0C9" x="391" y="203" width="110" height="117"></rect><rect id="Rectangle-6" fill="#F0E0C9" x="534" y="203" width="46" height="117"></rect><rect id="Rectangle" fill="#FFF1B6" x="0" y="80" width="580" height="32"></rect><rect id="Rectangle" fill="#FFF1B6" x="391" y="171" width="190" height="32"></rect><rect id="Rectangle" fill="#FFF1B6" x="358" y="0" width="33" height="320"></rect><rect id="Rectangle" fill="#FFF1B6" x="501" y="171" width="33" height="149"></rect></g></svg>
